<svg xmlns="http://www.w3.org/2000/svg" viewBox="0 0 1000 500" role="img" aria-label="Simplified world map">
  <path d="M61 171c31-47 86-74 145-70 42 3 76 18 102 47 20 22 32 52 27 82-7 43-46 62-55 104-7 32 8 65-11 95-17 27-55 31-78 11-24-21-18-55-35-81-20-31-64-30-88-59-33-39-34-87-7-129Z"/>
  <path d="M304 130c24-24 62-37 100-34 54 4 93 35 116 77 18 34 22 79-1 111-24 34-74 31-105 56-35 28-41 86-85 94-32 6-61-16-63-48-2-29 19-51 28-77 12-35-5-69-17-101-10-27 7-58 27-78Z"/>
  <path d="M470 159c41-55 116-84 193-76 67 7 129 38 173 89 37 44 58 101 45 153-13 53-59 82-113 78-38-3-69-25-106-21-42 4-76 42-118 32-41-9-58-58-49-97 8-36 34-62 32-100-1-22-10-40-57-58Z"/>
  <path d="M674 315c30-20 76-22 111-3 42 23 67 66 68 110 1 40-26 73-67 74-42 1-71-30-105-47-32-17-77-16-93-51-15-34 24-63 86-83Z"/>
  <path d="M820 124c28-18 67-17 92 1 27 20 37 55 20 80-18 27-57 29-86 16-31-14-59-42-52-71 2-10 11-19 26-26Z"/>
</svg>
